/* XPM */
static char *nowplaying_xpm[] = {
/* columns rows colors chars-per-pixel */
"20 20 55 1",
"  c #414141",
". c gray28",
"X c #494949",
"o c gray31",
"O c #535353",
"+ c gray34",
"@ c #5D5D5D",
"# c gray40",
"$ c #676767",
"% c #686868",
"& c DimGray",
"* c #6C6C6C",
"= c #7D7D7F",
"- c None",
"; c #837E8A",
": c #858487",
"> c #868588",
", c #8B878F",
"< c #8D8993",
"1 c #8E8B92",
"2 c #908A97",
"3 c #918D97",
"4 c #928C9A",
"5 c #96909D",
"6 c #98929F",
"7 c #9D9C9E",
"8 c #9E97A6",
"9 c #9F9BA3",
"0 c #A0A0A0",
"q c #A3A1A7",
"w c #A4A2A6",
"e c #A5A5A5",
"r c #A7A0AF",
"t c #A8A3AD",
"y c #A9A6AE",
"u c gray66",
"i c #AFAFAF",
"p c #B1AFB3",
"a c #B1ADB6",
"s c #B5B3B7",
"d c #B7B7B7",
"f c #B6B3BB",
"g c #BAB9BC",
"h c #C3C3C3",
"j c #C5C3C9",
"k c #CACACB",
"l c gray81",
"z c #D5D5D5",
"x c #DADADA",
"c c gray87",
"v c #DFDFDF",
"b c gray90",
"n c #E7E7E7",
"m c #EAEAEA",
"M c #EFEFEF",
/* pixels */
"-------------ii-----",
"------------n3f-----",
"-----------z39a-----",
"-----------75qq-----",
"---------v3>*w5-g---",
"---------7>##r3--t--",
"--hggggd33@+#r8---t-",
"-Mjffffa9:++#qr-r-4-",
"-nr62446q:Oo#rr-t--6",
"-v68888rt>XX#yt--4-4",
"-c242446y=X.#t9--6-6",
"-n2;;=;3g,  %y2--4-6",
"--w<<<<3gg:X%a<-r--4",
"--------dphkkf;-r-r-",
"---------ughls;---t-",
"----------whls;--r--",
"-----------eis2-g---",
"------------7p3-----",
"------------x90-----",
"-------------40-----"
};
