/* XPM */
static char * dynamic_xpm[] = {
"20 20 32 1",
" 	c None",
".	c #848484",
"+	c #967BA6",
"@	c #C0C0C0",
"#	c #FFFFFF",
"$	c #000000",
"%	c #F3F3F3",
"&	c #ABABAB",
"*	c #787878",
"=	c #121212",
"-	c #EDEDED",
";	c #E7E7E7",
">	c #BDBDBD",
",	c #939393",
"'	c #060606",
")	c #515151",
"!	c #A8A8A8",
"~	c #D2D2D2",
"{	c #7A808B",
"]	c #020203",
"^	c #3F3F3F",
"/	c #F6F6F6",
"(	c #9F9F9F",
"_	c #3C3C3C",
":	c #CFCFCF",
"<	c #4B4B4B",
"[	c #7B7B7B",
"}	c #151515",
"|	c #636363",
"1	c #E4E4E4",
"2	c #D8D8D8",
"3	c #C6C6C6",
"                    ",
"                    ",
" ..........         ",
" .++++++++@.        ",
" .########@#.       ",
" .+++#++#+$$$$      ",
" .###########$      ",
" .+++#####++#$      ",
" .####%&#####$      ",
" .+#+#*=-##+#$      ",
" .#;>,'$)!~##$      ",
" .+{]$$$$$^/#$      ",
" .##($$$$_/##$      ",
" .++%$$$$.###$      ",
" .##:$<[}|###$      ",
" .##12##/3###$      ",
" .###########$      ",
" $$$$$$$$$$$$$      ",
"                    ",
"                    "};
