/* XPM */
static char *netstream_xpm[] = {
/* columns rows colors chars-per-pixel */
"20 20 6 1",
"  c black",
". c #0080FF",
"X c None",
"o c #808080",
"O c #C0C0C0",
"+ c gray100",
/* pixels */
"XX         oo.....XX",
"  +OOOOOOOOO. ooX.XX",
" OO++++OOOOO.OO  .XX",
" OO    +++OO.OOOo. X",
" OO oooO  ++.OOoo. X",
" O++oooO o  .+oo . X",
" O  +++O o.. OO..o X",
" O     O++..oOO..o X",
" OOO    OOO++OOo o X",
" OOOOOO    OOOO oo X",
" O  OOOO     OOooo X",
" OOO   OOOO  OOo o X",
" O+ OOO OOOOOOO oo X",
" O  OO+    OOOOooo X",
" OOOOO  OOO  OOo o X",
" OOOOOOOOO+ OOO oooX",
"Xoo   OOOO  OOOoo XX",
"XXXooo   OOOOOOo XXX",
"XXXXXXooo   OOO XXXX",
"XXXXXXXXXXoo   XXXXX"
};
