/* XPM */
static char *rating7_xpm[] = {
/* columns rows colors chars-per-pixel */
"32 14 4 1",
"  c black",
". c None",
"X c #C0C0C0",
"o c gray100",
/* pixels */
"................................",
"................................",
"................................",
"................................",
"....XXXXXXXXXXXXXXXXXXXX........",
"....X              ooooX........",
"....X              ooooX........",
"....X              ooooX........",
"....X              ooooX........",
"....XXXXXXXXXXXXXXXXXXXX........",
"................................",
"................................",
"................................",
"................................"
};
