/* XPM */
static char * standard_xpm[] = {
"20 20 12 1",
" 	c None",
".	c #848484",
"+	c #C0C9DB",
"@	c #C6C6C6",
"#	c #FFFFFF",
"$	c #000000",
"%	c #BCC5D7",
"&	c #202020",
"*	c #2A2A2A",
"=	c #3F3F3F",
"-	c #080808",
";	c #262626",
"                    ",
"                    ",
" ..........         ",
" .++++++++@.        ",
" .########@#.       ",
" .+++#++#+$$$$      ",
" .###########$      ",
" .+++#++++++#$      ",
" .###$$$$$$##$      ",
" .+#+$####$+#$      ",
" .###$$$$$$##$      ",
" .+++$+%++$##$      ",
" .###$####$+#$      ",
" .+++$#+&$$+#$      ",
" .#$*$##=-;##$      ",
" .#$$$##++++#$      ",
" .###########$      ",
" $$$$$$$$$$$$$      ",
"                    ",
"                    "};
