/* XPM */
static char *ratingminus9_xpm[] = {
/* columns rows colors chars-per-pixel */
"32 14 3 1",
"  c None",
". c red",
"X c #C0C0C0",
/* pixels */
"                                ",
"                                ",
"                                ",
"                                ",
"    XXXXXXXXXXXXXXXXXXXX        ",
"    X..................X        ",
"    X..................X        ",
"    X..................X        ",
"    X..................X        ",
"    XXXXXXXXXXXXXXXXXXXX        ",
"                                ",
"                                ",
"                                ",
"                                "
};
