/* XPM */
static char *ratingminus3_xpm[] = {
/* columns rows colors chars-per-pixel */
"32 14 4 1",
"  c None",
". c red",
"X c #C0C0C0",
"o c gray100",
/* pixels */
"                                ",
"                                ",
"                                ",
"                                ",
"    XXXXXXXXXXXXXXXXXXXX        ",
"    X......ooooooooooooX        ",
"    X......ooooooooooooX        ",
"    X......ooooooooooooX        ",
"    X......ooooooooooooX        ",
"    XXXXXXXXXXXXXXXXXXXX        ",
"                                ",
"                                ",
"                                ",
"                                "
};
