/* XPM */
static char * pause_down_xpm[] = {
"16 16 2 1",
" 	c None",
".	c #000000",
"                ",
"                ",
"                ",
"                ",
"    ...  ...    ",
"    . .  . .    ",
"    . .  . .    ",
"    . .  . .    ",
"    . .  . .    ",
"    . .  . .    ",
"    . .  . .    ",
"    . .  . .    ",
"    ...  ...    ",
"                ",
"                ",
"                "};
