/* XPM */
static char *tray_xpm[] = {
/* columns rows colors chars-per-pixel */
"16 16 158 2",
"   c black",
".  c gray47",
"X  c #B17909",
"o  c #B27B0B",
"O  c #B87F0E",
"+  c #B5831F",
"@  c #BB871D",
"#  c #BC871C",
"$  c #B68A32",
"%  c #BF943D",
"&  c #BF9747",
"*  c #B69D6A",
"=  c #C08819",
"-  c #C98F1C",
";  c #DC9C1C",
":  c #DC9D1F",
">  c #CA9221",
",  c #C89225",
"<  c #C99226",
"1  c #C69432",
"2  c #C5993F",
"3  c #DBA333",
"4  c #DCA433",
"5  c #DCA436",
"6  c #DDA639",
"7  c #EFAD29",
"8  c #E4AC3A",
"9  c #E4AC3B",
"0  c #E4AC3D",
"q  c #E5AD3D",
"w  c #F0AF2E",
"e  c #F5B432",
"r  c #F6B431",
"t  c #F5B537",
"y  c #F6B635",
"u  c #F6B636",
"i  c #F5B73B",
"p  c #F7B739",
"a  c #C29946",
"s  c #C39A49",
"d  c #C49B4B",
"f  c #C59F55",
"g  c #C6A158",
"h  c #C7A359",
"j  c #CAA763",
"k  c #CBAB6B",
"l  c #CBAC6C",
"z  c #CEB074",
"x  c #CFB177",
"c  c #D1B57B",
"v  c #E5AF44",
"b  c #E5B045",
"n  c #E3B14E",
"m  c #F3B945",
"M  c #F3BA48",
"N  c #E1C07E",
"B  c #8D8D8D",
"V  c #8D8E8E",
"C  c #9E9F9F",
"Z  c #B4A88D",
"A  c #B2A892",
"S  c #A5A5A0",
"D  c #A7ADB2",
"F  c #A9AFB4",
"G  c #B0B4B8",
"H  c #B2B6BA",
"J  c #B4B8BB",
"K  c #B6BABD",
"L  c #B7BDC3",
"P  c #B7BEC3",
"I  c #BBBEC1",
"U  c #D3B983",
"Y  c #D4BB86",
"T  c #DAC498",
"R  c #DBC69B",
"E  c #F0CD86",
"W  c #F4D087",
"Q  c #F6D697",
"!  c #EFD6A5",
"~  c #EFD9AD",
"^  c #E5D5B6",
"/  c #F1D9A7",
"(  c #F4D8A0",
")  c #F5DAA4",
"_  c #F0DCB2",
"`  c #F2DDB0",
"'  c #F1DDB4",
"]  c #F3E2BD",
"[  c #C0C3C6",
"{  c #C1C4C7",
"}  c #C0C6CC",
"|  c #C9CACB",
" . c #CBCCCC",
".. c #CFCEC8",
"X. c #CCCDCF",
"o. c #CACED2",
"O. c #CFD4D8",
"+. c #D0D3D7",
"@. c #D2D3D5",
"#. c #D1D5DA",
"$. c #D4D7DA",
"%. c #D5DADE",
"&. c #D6D9DC",
"*. c #D7DADC",
"=. c #D6DADE",
"-. c #D7DCE0",
";. c #D6DDE2",
":. c #D7DDE2",
">. c #D9DEE1",
",. c #DBDFE2",
"<. c #DBDFE3",
"1. c #DBE0E4",
"2. c #DAE1E7",
"3. c #DEE0E2",
"4. c #DBE2E8",
"5. c #DCE3E8",
"6. c #DDE3E9",
"7. c #DEE4E9",
"8. c #DEE4EA",
"9. c #DFE5EA",
"0. c #ECE7D9",
"q. c #EBE8DF",
"w. c #EEEADF",
"e. c #F0E5CC",
"r. c #F1E7D1",
"t. c #E1E4E7",
"y. c #E0E6EB",
"u. c #E3E6E8",
"i. c #E3E7EB",
"p. c #E1E7EC",
"a. c #E4E6E9",
"s. c #E4E7EA",
"d. c #E2E8EC",
"f. c #E5E8EB",
"g. c #E6E9EB",
"h. c #E4E9ED",
"j. c #E5E9ED",
"k. c #E6EAEF",
"l. c #E6EBEF",
"z. c #EAE8E1",
"x. c #EBEAE4",
"c. c #E8EAEC",
"v. c #E8ECEF",
"b. c #E9ECEF",
"n. c #EAECEE",
"m. c #E7ECF0",
"M. c #E8ECF0",
"N. c #E9EDF1",
"B. c #EAEEF1",
"V. c #EBEEF1",
"C. c #EBEEF2",
"Z. c #EBEFF2",
"A. c #EDEFF1",
"S. c #ECEFF2",
"D. c #EDF0F3",
"F. c #EDF1F3",
"G. c #EFF2F4",
"H. c None",
/* pixels */
"H.H.H.H.H.{ J J K J [ H.H.H.H.H.",
"H.H.H.k * *.n.A.A.A.=.A k H.H.H.",
"H.H.& 1 q.A.F.F.F.F.A.k.2 & H.H.",
"H.z = E G.N.N.N.g.N.N.A.! = z H.",
"H.X v Q N.h.h.C V X.h.l.] b X H.",
"U - m ( h.y.=.. V >.9.i.e.M > Y ",
"f 4 t / 8.4.O.<.#.2.2.8.0.i 6 h ",
"d 8 r ~ 4.4.#.1.<.=.2.4.z.t q a ",
"h q t ` y.g.<.9.g.#.d.8.z.p q s ",
"c 3 r ` N.k.y.M.@.n.N.l.w.t 5 j ",
"^ , 7 ( N.N.a...,.F.n.N.r.w , R ",
"H.% : W A.N.u.| N.N.N.N.' : + H.",
"H.H.# n l.h.y.a.N.N.h.h.N # H.H.",
"H.H.T @ ..<.8.y.8.8.:.o.$ z H.H.",
"H.H.H.H.Z F P } } P D S H.H.H.H.",
"H.H.H.H.H.H.{ G G I H.H.H.H.H.H."
};
