/* XPM */
static char *tray_xpm[] = {
/* width height colors cpp x-hot y-hot */
"16 16 10 1 0 0",

/* colors */
"  c None",
"a c #040404",
"b c #CCCC99",
"c c #FFCC99",
"d c #FFCC66",
"e c #FFFFFF",
"f c #CC9933",
"g c #FF9966",
"h c #B07C28",
"i c #000000",

/* pixels */
"     aaaaaa     ",
"   aabcccccaa   ",
"  adddddddddea  ",
" afggggggggggfa ",
" aaaaaaaaaaaaha ",
" aeeeeeeeeeeeea ",
" aeeeeeiiiiieea ",
" aeeeeeieeeieea ",
" aeeeeeiiiiieea ",
" aeeeeeieeeieea ",
" aeeeeeieeiieea ",
" aeeeeiieiiieea ",
" aeeeiiieiieeea ",
" aeeeiieeeeeeea ",
" aeeeeeeeeeeeea ",
" aaaaaaaaaaaaaa "};
