/* XPM */
static char *library_xpm[] = {
/* columns rows colors chars-per-pixel */
"23 24 23 1",
"  c black",
". c #313131",
"X c #21314A",
"o c #394A73",
"O c #523021",
"+ c gray29",
"@ c #42636B",
"# c gray39",
"$ c #7B7B7B",
"% c blue",
"& c #5A7BB5",
"* c #0080FF",
"= c None",
"- c #5A8C8C",
"; c #7BA6F7",
": c #8C5931",
"> c #BD794A",
", c gray58",
"< c gray68",
"1 c #8CCDD6",
"2 c #CDCDCD",
"3 c #E7E7E7",
"4 c #FEF6EE",
/* pixels */
"== .$#OX===========X<1#",
"1&X,2,<#===:43@.-O. --@",
"&@ -<,,@=>: 3,.#2-+ #-+",
"oo $1,,O=:O 2,.#-#@ ---",
"&@ -<#+@ : X3<.-,@O #-#",
"ooX$2#-:X ;@X. O,:@ -@-",
"&@ -<@+@ X;&&;;&oX  &@#",
"&o $1#-: ;&&&&&&;;;&X.o",
"&o -<-+@o;&&&*&&&&&;&X#",
"&oX$1$- ;&&&*%*&&&&&&,@",
"&@ -<#,X;&&&%*%%*&&&+&#",
"&o $1,.;&&&%*&&&%*&o1.o",
"&@ -<1.;&&&%*&&%%*&o,-#",
"&oX,4O;&;%%*&&&%*&o,&-o",
"&@ #,X;&&%%*&&%*&&o1.-+",
"&o ,+&;&;**&&&%*&&#,---",
"&o ,.;&&&&&&%%*&&X<X#@#",
"&oXO;&;&;&&&%%*&&+1=--o",
";o. oo&;&;&&**&&&-o=#o#",
"== &4,o o&;&&&&&@<=====",
"===&+344<@ oo&&&#@=====",
"====X X&344<-.XX3======",
"======= . &-33<2+======",
"============@oo<&======"
};
